<?xml version="1.0" standalone="no"?>
<!DOCTYPE svg PUBLIC "-//W3C//DTD SVG 1.1//EN" "http://www.w3.org/Graphics/SVG/1.1/DTD/svg11.dtd" >
<!--
2013-9-30: Created.
-->
<svg>
<metadata>
Created by iconfont
</metadata>
<defs>

<font id="iconfont" horiz-adv-x="1024" >
  <font-face
    font-family="iconfont"
    font-weight="500"
    font-stretch="normal"
    units-per-em="1024"
    ascent="896"
    descent="-128"
  />
    <missing-glyph />
    
    <glyph glyph-name="x" unicode="x" horiz-adv-x="1001"
d="M281 543q-27 -1 -53 -1h-83q-18 0 -36.5 -6t-32.5 -18.5t-23 -32t-9 -45.5v-76h912v41q0 16 -0.5 30t-0.5 18q0 13 -5 29t-17 29.5t-31.5 22.5t-49.5 9h-133v-97h-438v97zM955 310v-52q0 -23 0.5 -52t0.5 -58t-10.5 -47.5t-26 -30t-33 -16t-31.5 -4.5q-14 -1 -29.5 -0.5
t-29.5 0.5h-32l-45 128h-439l-44 -128h-29h-34q-20 0 -45 1q-25 0 -41 9.5t-25.5 23t-13.5 29.5t-4 30v167h911zM163 247q-12 0 -21 -8.5t-9 -21.5t9 -21.5t21 -8.5q13 0 22 8.5t9 21.5t-9 21.5t-22 8.5zM316 123q-8 -26 -14 -48q-5 -19 -10.5 -37t-7.5 -25t-3 -15t1 -14.5
t9.5 -10.5t21.5 -4h37h67h81h80h64h36q23 0 34 12t2 38q-5 13 -9.5 30.5t-9.5 34.5q-5 19 -11 39h-368zM336 498v228q0 11 2.5 23t10 21.5t20.5 15.5t34 6h188q31 0 51.5 -14.5t20.5 -52.5v-227h-327z" />
    

    
    <glyph glyph-name="menu" unicode="&#58909;" d="M76.209 491.33h871.113c33.93 0 61.452 27.028 61.452 60.37 0 33.338-27.522 60.366-61.452 60.366h-871.113c-33.929 0-61.451-27.028-61.451-60.366 0-33.342 27.522-60.37 61.451-60.37M76.209 230.724h871.113c33.93 0 61.452 27.032 61.452 60.37 0 33.34-27.522 60.396-61.452 60.396h-871.113c-33.929 0-61.451-27.056-61.451-60.396 0-33.338 27.522-60.37 61.451-60.37M76.209-29.878h871.113c33.93 0 61.452 27.052 61.452 60.394 0 33.34-27.522 60.394-61.452 60.394h-871.113c-33.929 0-61.451-27.054-61.451-60.394 0-33.342 27.522-60.394 61.451-60.394z"  horiz-adv-x="1024" />

    
    <glyph glyph-name="html5" unicode="&#59339;" d="M60.53888 896l82.14528-921.62048 368.76288-102.37952 369.72544 102.52288 82.30912 921.47712-902.92224 0zM784.62976 594.57536l-432.5376 0 10.30144-115.75296 411.97568 0-31.04768-347.01312-231.85408-64.24576-231.56736 64.24576-15.83104 177.52064 113.50016 0 8.04864-90.23488 125.87008-33.91488 0.28672 0.08192 125.93152 33.9968 13.06624 146.55488-391.74144 0-30.49472 341.79072 566.21056 0-10.11712-113.02912z"  horiz-adv-x="1024" />

    
    <glyph glyph-name="xiao05" unicode="&#59499;" d="M512-162.1312c21.1968 0 42.6752 1.4848 64.256 4.5056 251.136 35.2512 426.7776 268.288 391.5008 519.4752-1.4848 10.496-11.136 17.792-21.6832 16.3328-10.496-1.4848-17.8176-11.1872-16.3328-21.6832 32.3328-230.1952-128.64-443.776-358.8352-476.1088-230.1952-32.1792-443.7248 128.6912-476.032 358.8864-15.6672 111.4624 13.056 222.4128 80.8192 312.32C243.456 641.504 342.1696 699.6672 453.6576 715.3088c120.6016 16.9216 240.3072-18.9184 332.3136-97.7152l-103.7824-14.5664c-10.496-1.4848-17.8176-11.1872-16.3328-21.6832 1.3568-9.6 9.5744-16.5376 18.9952-16.5376 0.896 0 1.792 0.0512 2.688 0.1792l136.96 19.2256c10.496 1.4848 17.8176 11.1872 16.3328 21.6832C840.6784 607.2 840.0384 608.2496 839.6288 609.4272l-18.9184 134.784c-1.4848 10.496-11.1104 17.8688-21.6832 16.3328-10.496-1.4848-17.8176-11.1872-16.3328-21.6832l10.8288-77.184c-97.792 75.776-221.1328 109.0816-345.1904 91.648C326.6816 736.2752 218.9568 672.8128 145.024 574.7136s-105.2672-219.136-88.192-340.7872C89.0624 4.3456 286.4896-162.1312 512-162.1312zM783.1808 373.6512c-2.176 6.9632-8.1408 12.1088-15.36 13.2352l-166.5792 26.1376-72.9088 152.0384c-3.1744 6.5792-9.7792 10.8032-17.1008 10.9056-0.0512 0-0.128 0-0.2048 0-7.2192 0-13.8496-4.0448-17.1264-10.5216l-76.3648-150.4256-167.2192-22.3744c-7.2448-0.9728-13.312-5.9648-15.6416-12.8768-2.3296-6.9376-0.5376-14.5664 4.6336-19.7376l119.4752-119.04-30.3616-165.9904c-1.3056-7.1936 1.5616-14.4896 7.4496-18.8672 5.8624-4.3264 13.6704-5.0176 20.1984-1.664l150.144 76.8256 148.3776-80.128c2.8672-1.5616 5.9904-2.304 9.1136-2.304 0.1792 0 0.3328 0 0.512 0 10.5984 0 19.2 8.6016 19.2 19.2 0 2.5856-0.512 5.0432-1.4336 7.296l-25.9072 162.2528 122.0352 116.4544C783.3856 359.0592 785.3568 366.6624 783.1808 373.6512zM622.2592 258.3744c-4.5824-4.352-6.7072-10.6752-5.7088-16.9216l22.0416-138.0864-123.0592 66.4576c-2.8416 1.536-5.9904 2.304-9.1136 2.304-2.9952 0-5.9904-0.6912-8.7552-2.1248l-124.4928-63.7184 25.1648 137.6512c1.1264 6.2208-0.8704 12.5952-5.3248 17.0496l-99.0464 98.688 138.6752 18.56c6.272 0.8448 11.7248 4.7104 14.5664 10.3424l63.3344 124.7488 60.4416-126.08c2.7392-5.7088 8.0896-9.6768 14.336-10.6752l138.1376-21.6832L622.2592 258.3744z"  horiz-adv-x="1024" />

    
    <glyph glyph-name="android" unicode="&#58882;" d="M874.28889 115.006157C842.688238 115.006157 817.100099 141.666294 817.100099 174.478771L817.100099 428.822072C817.100099 461.681157 842.688238 488.294685 874.28889 488.294685 905.889542 488.294685 931.47768 461.681157 931.47768 428.822072L931.47768 174.478771C931.47768 141.666294 905.889542 115.006157 874.28889 115.006157ZM718.569453-10.510887 674.990382-10.510887C676.43525-15.777662 677.274205-21.277481 677.274205-27.010342L677.274205-30.319555 677.274205-50.128224 677.274205-152.527386C677.274205-185.386472 651.639458-212 620.038806-212 588.484763-212 562.850015-185.386472 562.850015-152.527386L562.850015-50.128224 562.850015-30.319555 562.850015-27.010342C562.850015-21.277481 563.688971-15.777662 565.133838-10.510887L458.866159-10.510887C460.311027-15.777662 461.196591-21.277481 461.196591-27.010342L461.196591-30.319555 461.196591-50.128224 461.196591-152.527386C461.196591-185.386472 435.561843-212 403.961191-212 372.360539-212 346.725792-185.386472 346.725792-152.527386L346.725792-50.128224 346.725792-30.319555 346.725792-27.010342C346.725792-21.277481 347.564747-15.777662 349.009615-10.510887L305.430545-10.510887C272.151982-10.510887 245.072367 17.640726 245.072367 52.270939L245.072367 398.526461 245.072367 438.842927 245.072367 488.294685 249.173927 488.294685 774.826071 488.294685 778.92763 488.294685 778.92763 438.842927 778.92763 398.526461 778.92763 52.270939C778.92763 17.640726 751.894624-10.510887 718.569453-10.510887ZM380.750093 726.231748 370.030108 743.010855 359.40334 759.510311 335.632938 796.610781C332.743203 801.131818 333.908419 807.284158 338.28963 810.313719 342.670841 813.389888 348.590137 812.131455 351.526481 807.56381L377.021402 767.806647 387.741388 751.120757 398.601199 734.201824C433.044977 748.044587 471.450489 755.828229 511.999999 755.828229 552.549508 755.828229 591.001629 748.044587 625.445407 734.201824L636.305218 751.120757 647.025204 767.806647 672.520125 807.56381C675.40986 812.131455 681.329156 813.389888 685.756976 810.313719 690.091579 807.284158 691.303403 801.131818 688.36706 796.610781L664.596658 759.510311 654.016498 743.010855 643.249904 726.231748C724.209097 687.080498 778.92763 612.879557 778.92763 527.912022L245.072367 527.912022C245.072367 612.879557 299.837509 687.080498 380.750093 726.231748ZM626.424189 607.193304C642.224515 607.193304 654.995279 620.523372 654.995279 636.92961 654.995279 653.335849 642.224515 666.619308 626.424189 666.619308 610.623863 666.619308 597.806489 653.335849 597.806489 636.92961 597.806489 620.523372 610.623863 607.193304 626.424189 607.193304ZM397.622417 607.193304C413.422744 607.193304 426.193508 620.523372 426.193508 636.92961 426.193508 653.335849 413.422744 666.619308 397.622417 666.619308 381.822091 666.619308 369.004718 653.335849 369.004718 636.92961 369.004718 620.523372 381.822091 607.193304 397.622417 607.193304ZM149.711108 115.006157C118.110456 115.006157 92.522317 141.666294 92.522317 174.478771L92.522317 428.822072C92.522317 461.681157 118.110456 488.294685 149.711108 488.294685 181.31176 488.294685 206.946507 461.681157 206.946507 428.822072L206.946507 174.478771C206.946507 141.666294 181.31176 115.006157 149.711108 115.006157Z"  horiz-adv-x="1024" />

    
    <glyph glyph-name="close2" unicode="&#58890;" d="M597.795527 300.511653 813.564755 516.281905c23.833825 23.833825 23.833825 62.47489 0.001023 86.307691-23.832801 23.832801-62.47489 23.833825-86.307691 0L511.487835 386.819344 295.717583 602.589596c-23.833825 23.833825-62.475913 23.833825-86.307691 0-23.832801-23.832801-23.833825-62.47489 0-86.308715l215.769228-215.769228L209.410915 84.741401c-23.833825-23.833825-23.833825-62.47489 0-86.307691 23.832801-23.833825 62.473867-23.833825 86.307691 0l215.768205 215.768205 215.769228-215.769228c23.834848-23.833825 62.475913-23.832801 86.308715 0 23.833825 23.833825 23.833825 62.47489 0 86.307691L597.795527 300.511653z"  horiz-adv-x="1024" />

    
    <glyph glyph-name="introduction" unicode="&#58943;" d="M470.495791 246.951223C459.803806 245.812126 452.089007 236.233348 453.253995 225.567253 454.315426 215.600149 462.755106 208.221901 472.540988 208.221901 473.214093 208.221901 473.938974 208.273681 474.637965 208.351347L900.789931 254.096474C911.456026 255.235571 919.144934 264.814345 918.031727 275.480439 916.866739 286.146539 907.365628 293.835447 896.621867 292.69635L470.495791 246.951223 470.495791 246.951223ZM436.866522 348.900463C437.953843 338.933359 446.367633 331.55511 456.127629 331.55511 456.80073 331.55511 457.551501 331.606891 458.250492 331.684557L884.50601 377.429683C895.172105 378.568781 902.861018 388.147554 901.747806 398.839539 900.582822 409.479748 891.081711 417.298099 880.363836 416.055445L454.108318 370.284433C443.442223 369.145335 435.701534 359.566558 436.866522 348.900463L436.866522 348.900463ZM1204.929003 6.606182 1129.645005 706.970019C1127.470362 726.956005 1117.65859 744.870904 1102.021884 757.37509 1086.5664 769.80161 1067.098185 775.341766 1047.474641 773.167125L1036.937988 772.105693C1026.349555 770.992484 1018.712427 761.56904 1019.696192 751.032387L1017.469773 771.277259C1014.958579 794.110989 995.076147 812 972.242419 812 969.964224 812 967.996689 811.896446 967.245922 811.689337L40.745312 712.328955C15.736941 709.584765-2.385067 687.009921 0.255568 662.053327L75.436013-38.284621C77.895429-61.170129 98.010858-79.085026 121.129362-79.085026 121.854243-79.085026 125.038538-78.955584 125.73753-78.877918L137.361504-77.609378C131.381241-81.466778 127.653285-88.327253 128.48172-95.86083L129.853815-108.779234C133.892434-146.835452 165.787168-175.52 204.102271-175.52 206.768795-175.52 209.538874-175.338782 212.101843-175.028117L1138.576563-75.615957C1158.355443-73.54487 1176.140898-63.784875 1188.696862-48.225839 1201.201045-32.692689 1206.948314-13.250359 1204.929003 6.606182L1204.929003 6.606182ZM121.802466-40.226266 121.129362-59.668591 121.129362-40.252156C117.686181-40.252156 114.424219-37.456188 114.035891-34.142447L38.881334 666.169612C38.467117 669.845791 41.263084 673.314861 44.939263 673.729078L972.242419 773.167125C975.452604 773.167125 978.559232 770.319381 978.895782 767.05742L1054.102118 67.107802C1054.283337 65.010825 1053.765568 63.198626 1052.471138 61.619422 1051.409707 60.247326 1049.908169 59.470669 1048.07008 59.263561L121.802466-40.226266 121.802466-40.226266ZM1134.48617-36.964305 207.726673-136.454127C187.378246-138.861769 170.550668-124.157052 168.505469-104.662946L167.081597-91.66688C166.253163-84.133303 161.049557-78.256593 154.42208-75.77129L1052.23814 20.663684C1064.457553 22.00989 1075.356646 27.964262 1082.812557 37.361818 1090.320247 46.681707 1093.841092 58.461013 1092.779661 70.887535L1019.696192 750.488727C1020.964732 739.952073 1030.595285 732.418496 1041.002496 733.454039L1051.616815 734.567248C1061.117922 735.602791 1070.386035 732.962156 1077.738394 727.059559 1085.27197 721.053408 1090.009583 712.406621 1091.045124 702.801957L1166.277346 2.541675C1167.312892-7.114769 1164.542814-16.253436 1158.407219-23.864683 1152.426957-31.346479 1143.935501-35.980535 1134.48617-36.964305ZM180.880212 370.936209 362.825174 390.482091C373.49127 391.621188 381.206068 401.174076 380.06697 411.866061L360.546978 593.707468C359.407881 604.373564 349.880882 612.217805 339.163009 610.949264L157.295713 591.455161C146.629617 590.316064 138.914819 580.763176 140.053917 570.09708L159.522131 388.178005C160.065791 383.052066 162.602872 378.392124 166.641491 375.130163 170.110562 372.334195 174.408066 370.858543 178.835014 370.858543 179.482228 370.858543 180.232998 370.884433 180.880212 370.936209L180.880212 370.936209ZM323.992299 570.2783 339.344229 427.01088 196.07681 411.633062 180.698992 554.92637 323.992299 570.2783 323.992299 570.2783Z"  horiz-adv-x="1238" />

    
    <glyph glyph-name="ios" unicode="&#58942;" d="M896 160.806618C896 155.813562 876.027763 85.91072 826.097165 16.007885 781.159622-43.908832 741.215149-103.825549 671.312307-108.818611 601.409473-108.818611 581.437233-68.874131 501.548276-68.874131 421.65932-68.874131 396.694021-108.818611 331.784244-108.818611 266.874467-113.811667 211.950809-43.908832 172.00633 16.007885 82.131254 140.834381 17.221477 365.522071 107.096553 520.306925 152.034092 595.202822 231.923048 645.13342 316.805064 645.13342 381.714842 645.13342 446.624619 600.195882 486.569097 600.195882 526.513576 600.195882 601.409473 655.119539 681.298432 645.13342 716.24985 645.13342 806.124922 630.15424 866.041638 545.272224 861.048582 540.279164 756.194323 480.362447 756.194323 355.535952 761.187386 210.737216 896 160.806618 896 160.806618ZM613.872778 736.222086C648.824198 781.159625 673.789498 836.083282 668.796435 896 618.865837 896 553.95606 861.048581 519.004642 821.104103 484.053223 786.152685 459.087924 726.235967 464.080984 666.31925 519.004642 661.32619 573.9283 696.277608 613.872778 736.222086Z"  horiz-adv-x="1024" />

    
    <glyph glyph-name="github-copy" unicode="&#58897;" d="M909.76 523.947c0 62.613-20.8 120.427-61.653 166.933 24.107 75.413-3.307 139.093-6.933 148.907-68.053 6.187-138.667-44.48-152.96-55.253-41.92 11.307-89.6 17.493-143.147 17.493-53.12 0-100.693-6.080-142.4-17.28-5.973 4.693-82.027 63.68-155.307 57.067-3.733-9.707-31.787-74.88-6.187-151.36-40.32-46.507-60.907-104-60.907-166.293 0-128.747 74.027-237.013 251.2-268.587-0.32-0.32-0.533-0.533-0.853-0.853h1.28c-23.040-17.387-38.613-42.027-45.973-74.987-26.56-6.187-41.493-15.573-70.080-14.507-93.547 3.307-97.493 135.467-201.6 110.4 8-28.48 35.413-31.253 52.587-52.267 17.28-21.013 20.8-48.96 35.093-72.64 31.893-52.8 97.173-72 181.227-55.253-5.76-50.453 10.24-99.627-5.867-133.76-11.52-24.533-38.613-20.267-43.84-46.507 39.68-15.787 91.947-0.427 108.16 34.88 28.16 61.333-22.080 180.907 23.36 215.147-9.92-74.987 15.787-167.573-5.867-229.76-7.36-21.227-26.88-29.12-23.36-52.267 119.040-14.827 95.893 136.64 96.427 247.147 0.107 12.587-9.067 42.133 11.733 43.627 22.4-113.067-34.88-304.64 102.293-290.773 5.973 21.76-15.787 31.147-23.36 55.253-19.2 61.44-0.107 157.973-2.88 226.773 39.253-42.773 3.2-140.48 17.493-203.52 8.32-36.8 81.493-75.627 111.040-40.747-12.053 18.56-29.973 19.093-40.96 40.747-22.933 45.227 0.32 144.427-8.747 212.267-5.76 43.413-28.8 55.147-42.133 80.853h1.493c-0.213 0.213-0.32 0.32-0.533 0.533 177.813 31.147 252.16 139.627 252.16 268.587z"  horiz-adv-x="1024" />

    
    <glyph glyph-name="huoyan" unicode="&#59098;" d="M848.600034 288.887381c-114.626162 249.029327-40.663531 328.88555-39.902011 329.749425 1.263059 1.266129 1.446274 3.323462 0.468785 4.914056-1.046066 1.522016-3.026633 2.136146-4.755406 1.41045-1.650984-0.646883-161.194544-67.306496-141.112524-215.081297-43.799683 39.442438-248.220724 241.840947-123.13492 479.872246 0.757426 1.450368 0.53941 3.256931-0.616176 4.490307-1.07882 1.258965-2.920184 1.656101-4.360316 0.975442-2.735945-1.092126-66.505058-28.455669-117.32833-97.533928-46.895917-63.620698-90.545139-176.151657-31.787319-350.278735 21.371691-81.912532-18.924386-148.350035-40.557082-176.548794 5.338828 19.44742 12.005199 52.375995 10.888508 90.151073-1.723656 55.309485-21.620413 131.729656-106.616896 181.176256-1.30093 0.759473-2.997973 0.692942-4.254891-0.249746-1.333684-0.976465-1.873094-2.533282-1.485169-4.121829 0.255887-1.44525 32.087219-146.949821-23.712546-214.256317-48.158976-58.125267-95.340463-159.196578-69.819307-252.860469 21.410586-78.299406 88.271838-138.081798 198.754676-177.602025 28.327726-8.745198 55.471206-15.393144 85.428421-21.004237 1.947813-0.433985 3.859801 0.759473 4.465742 2.605954 0.53941 2.018437-0.361313 4.07577-2.162758 4.880279-56.768042 24.678776-115.270998 76.055788-71.806015 180.45056 41.419933 89.978093 34.034008 136.346883 25.704371 156.241593 21.410586-12.074801 63.907292-43.491595 53.313566-98.650619-0.288641-1.627442 0.433985-3.323462 1.835222-4.116712 1.446274-0.868993 3.214966-0.758449 4.471883 0.289664 1.368484 1.049137 129.184091 106.531942 71.075201 235.789728 28.629672-16.59172 104.576964-74.501018 59.772156-207.416967-14.926406-57.189744 25.69823-98.255529 27.39425-100.023197 1.368484-1.305024 3.386922-1.556817 4.965233-0.473903 1.518946 0.942688 2.130004 2.934513 1.446274 4.69604-1.335731 3.580372-31.581586 85.388502 34.100539 130.57407-3.497465-21.009355-9.014391-72.945224 14.525175-101.28728 21.115804-25.521156 41.525359-67.317755 35.279666-108.159384-4.359293-28.706439-21.303113-52.917453-50.499831-71.902228-1.657125-1.182198-2.264089-3.212918-1.397144-5.058376 0.790179-1.84034 2.920184-2.642802 4.793277-2.057332 72.123315 23.959221 166.71147 71.461079 207.953306 162.12495C890.486706 117.510577 886.632022 197.611429 848.600034 288.887381L848.600034 288.887381 848.600034 288.887381zM848.600034 288.887381"  horiz-adv-x="1024" />

    
    <glyph glyph-name="links" unicode="&#59313;" d="M389.360334 97.88461l-40.86164-40.868803c-45.12371-45.115524-118.306476-45.115524-163.460886 0-45.1145 45.155433-45.1145 118.338199 0 163.460886l40.859593 40.860617 155.941632 155.975401c-64.346517 30.635741-143.482879 19.98517-196.800201-33.375132l-122.639155-122.592083c-67.696822-67.737754-67.696822-177.49553 0-245.191328l81.766258-81.730443c67.696822-67.728544 177.539532-67.728544 245.194398 0l122.677017 122.593106c53.278437 53.319369 63.927985 132.380006 33.264615 196.800201L389.360334 97.88461zM348.498694 220.477716c22.61609-22.540366 59.1911-22.540366 81.731466 0l245.270123 245.267053c22.574135 22.580275 22.574135 59.117422 0 81.729419-22.61609 22.584368-59.1911 22.584368-81.731466 0l-245.270123-245.26603C325.927629 279.667793 325.927629 243.092783 348.498694 220.477716zM961.598276 751.840716l-81.731466 81.729419c-67.737754 67.73673-177.572278 67.73673-245.23533 0l-122.594129-122.592083c-53.361325-53.361325-64.010873-132.456754-33.339316-196.842157l155.941632 155.973354 40.86164 40.868803c45.1145 45.079708 118.306476 45.079708 163.462932 0 45.1145-45.188178 45.1145-118.380154 0-163.503864l-40.868803-40.85857L642.160967 350.68115c64.419172-30.66951 143.482879-20.019962 196.802248 33.257451l122.635061 122.677017C1029.296121 574.268438 1029.296121 684.109102 961.598276 751.840716z"  horiz-adv-x="1024" />

    
    <glyph glyph-name="web" unicode="&#58945;" d="M544.938667 780.96c0 0-91.530667 12.437333-230.197333-90.912 0 0.010667-124.106667-114.826667-133.034667-201.802667C181.706667 488.234667 315.605333 670.261333 544.938667 780.96zM941.024 575.189333c25.429333 23.808 32.565333 108.170667 32.565333 108.170667C981.578667 772.16 940.330667 808.96 940.330667 808.96 871.093333 879.36 703.413333 821.909333 703.413333 821.909333c-211.637333-67.210667-387.285333-232.64-387.285333-232.64C37.973333 345.76 16.693333 96.874667 16.693333 96.874667c-11.946667-170.890667 135.754667-172.16 135.754667-172.16 152.64-7.573333 224.266667 46.858667 233.216 54.272 96.234667-50.656 183.381333-47.594667 183.381333-47.594667C907.050667-47.157333 974.613333 221.877333 974.613333 221.877333l-224.64 0c-50.581333-121.066667-200.938667-96.864-200.938667-96.864-147.733333 29.642667-149.077333 187.04-149.077333 187.04l596.181333 0 0.010667 0.042667C1003.210667 425.525333 977.898667 511.189333 941.024 575.189333zM753.568 737.216C529.088 605.44 475.861333 541.845333 475.861333 541.845333c53.354667 45.312 126.176 41.941333 126.176 41.941333 166.592-18.4 161.162667-158.144 161.28-158.741333L399.936 425.045333c13.578667 56.885333 33.877333 81.162667 42.197333 89.130667-153.802667-130.442667-247.573333-324.490667-247.573333-324.490667 28.202667-84.629333 105.312-159.477333 169.450667-198.464-48.053333-31.648-103.776-36.96-103.776-36.96-135.754667-16.117333-131.765333 90.165333-131.765333 90.165333C132.384 154.773333 242.890667 326.826667 242.890667 326.826667c101.12 144.042667 240.544 265.077333 240.544 265.077333 137.749333 114.005333 256.522667 169.472 256.522667 169.472 124.736 62.56 182.666667 14.154667 182.666667 14.154667l0 0.010667 0.032 0c73.621333-55.402667 22.016-166.368 11.029333-187.989333C859.552 705.76 753.568 737.216 753.568 737.216z"  horiz-adv-x="1024" />

    
    <glyph glyph-name="java" unicode="&#58998;" d="M746.761991 720.464456c-29.661219-20.894041-58.554511-38.684373-90.295535-64.505953-23.99775-19.614161-67.321689-46.427647-69.65747-82.552261-3.615661-54.938849 81.016405-105.750086 36.124613-175.407556-17.022404-26.55751-45.915695-37.916445-82.552261-54.170921-4.383589 7.99925 9.535106 14.71862 15.486548 23.229822 56.250726 81.528357-58.554511 108.597819-43.867887 208.940412 14.174671 96.982908 128.467956 130.803737 234.761991 144.466456zM388.203606 385.135894c-26.55751-12.382839-70.93735-14.71862-90.295535-41.27613 19.614161-14.71862 48.251476-14.174671 74.808987-15.486548 108.853795-4.895541 245.065025 4.383589 337.92032 20.638065 3.103709-6.71937-12.894791-18.302284-23.229822-25.789582-58.554511-42.811986-240.681436-54.938849-366.301659-46.427647-42.044058 2.847733-138.259038 13.918695-139.314939 51.579164-1.27988 45.659719 116.597069 50.55526 165.104521 54.170921 9.535106 0.767928 27.357435 4.639565 41.27613 2.591757zM334.032684 269.050776c12.126863-1.535856-8.511202-8.767178-5.151517-18.046308 44.379839-43.867887 182.382902-31.485048 250.216542-18.046308 14.174671 2.847733 28.381339 11.358935 38.684373 10.335031 25.789582-2.335781 42.300034-32.252976 64.505953-36.124613-78.424648-35.356685-229.834453-52.123113-340.512077-30.941099-28.637315 5.407493-78.424648 20.894041-79.960504 43.867887-2.335781 31.229072 49.27538 44.379839 72.21723 49.019404zM367.565541 163.268694c7.99925-2.591757-2.847733-6.975346-2.591757-10.335031 23.485798-40.764178 139.570915-26.301534 198.637378-12.894791 11.870887 2.847733 23.741774 11.102959 33.532856 10.335031 29.917195-2.047808 41.27613-33.27688 67.065713-38.684373-82.296285-50.299284-281.70159-70.681374-363.741899-7.743274-3.871637 45.915695 33.020904 51.067212 67.065713 59.322439zM292.756554 85.86795c-24.509702-6.207418-87.959754 2.591757-90.295535-30.941099-0.767928-12.894791 21.661969-28.125363 36.124613-33.532856 84.088117-31.741024 253.064275-36.636565 392.091241-20.638065 64.505953 7.487298 185.742587 29.149267 170.256038 95.447052 19.358185-2.335781 36.636565-14.71862 38.684373-33.532856 7.743274-71.193326-155.825391-101.110521-221.835203-108.341843-143.698528-15.742524-323.233697-12.638815-433.367372 25.789582-35.868637 12.382839-79.192576 35.356685-77.400744 69.65747 3.103709 57.786583 142.386651 73.785083 185.742587 36.124613zM512.031997-127.968003c-96.726932 10.591007-189.8702 24.765678-268.294847 59.322439 205.068775-49.27538 504.048745-45.659719 647.491298 59.322439 7.743274 5.663469 14.974596 16.766428 25.789582 15.486548-36.124613-108.341843-174.895604-115.829141-294.08443-134.131425-37.148517 0-74.041059 0-110.9336 0zM579.09771 895.904009c18.046308-17.022404 30.941099-48.763428 30.941099-82.552261 0-99.830641-105.750086-157.617223-157.361247-224.42696-11.358935-14.974596-26.045558-37.916445-25.789582-61.914196 0.511952-54.426897 56.762678-115.317189 77.400744-159.953004-36.124613 23.741774-79.960504 55.450801-110.9336 92.855295-30.941099 37.148517-61.914196 97.49486-33.532856 149.617973 42.55601 78.424648 169.232134 125.108271 214.123926 208.940412 10.846983 20.382089 19.358185 51.579164 5.151517 77.400744zM731.30744 359.314314c53.147017 45.403743 143.154579 27.613411 147.026216-49.019404 4.383589-89.783583-93.911196-140.082867-165.104521-144.466456 33.020904 31.485048 120.21273 82.040309 103.190326 154.76949-6.975346 29.405243-43.611911 47.195575-85.112021 38.684373z"  horiz-adv-x="1024" />

    
    <glyph glyph-name="qq" unicode="&#58921;" d="M999.519988 219.688238l-2.59137 18.538261-3.317158 18.083366-2.637371 9.292131-2.540258 9.879917-3.36827 9.435244-3.45516 10.493259-3.950945 9.885028-4.313839 10.155921-7.682108 16.580678-6.813207 14.612873-6.818318 13.059073-5.954528 12.185061-6.813207 11.086156-4.998737 10.176366-10.590372 15.200659-13.314632 20.245397-3.092266 4.998737-1.047793 2.136475 0 1.676468 2.228476 6.843874 3.092266 6.087419 2.67826 12.021503 1.502688 6.204976 0 6.409424 0.771789 5.152073 0 5.18274-0.771789 5.954528-0.868901 4.860735-1.957583 9.859472-2.540258 9.593691-2.320477 8.791235-3.634051 8.545898-4.088947 7.135212-3.230268 6.705872-3.588051 6.383868-5.637635 9.409688-2.085363 3.337603-0.638898 2.908263-2.59137 18.246924-1.681579 12.021503-1.911583 14.878654-2.954264 15.384661-4.635843 17.628471-2.632259 9.885028-2.095585 8.361896-2.908263 9.726582-3.271157 10.334812-3.276268 9.58858-4.175837 10.314368-8.545898 19.928503-5.044738 9.430133-6.087419 10.815264-5.729636 9.276798-5.724525 10.493259-8.096114 9.726582-6.813207 9.425022-8.321006 9.726582-8.453897 8.816791-8.545898 8.520342-10.130365 8.837236-5.315631 3.179156-5.039627 4.410951-10.912376 7.743443-12.629734 8.387452-12.905738 7.584996-13.314632 6.843874-14.541316 6.245866L683.224638 870.510529l-14.219312 5.177629-15.543108 4.247393-14.219312 3.792498-15.134213 3.322269-14.311313 3.50116L594.341161 892.233058l-15.134213 1.840026-15.083102 1.978028-15.589109 0-15.042212 0-14.546427 0-15.307994-0.889346-14.362425-1.998473-14.311313-1.972917L460.412828 888.757453l-14.403314-2.749817-13.636637-3.342714-13.631526-4.400729-12.675734-4.410951-12.675734-4.247393-12.726846-6.250977-11.995947-5.019182-10.636372-6.09253-11.091268-6.833652-10.222366-7.135212-10.084364-8.039891-8.321006-7.477661-13.04374-12.292396-10.815264-11.428606-10.360368-11.086156-9.50169-11.270159-8.903681-11.541052-7.814999-11.244603-7.584996-11.249714-3.547161-5.019182-3.271157-6.09253-7.094322-10.656817-5.637635-10.636372-4.998737-10.038364-4.36495-10.636372-4.267838-9.72147-3.547161-9.133684-3.271157-9.726582-3.322269-8.970127-4.410951-16.268896-3.225157-15.660665-1.773581-13.08974-1.819581-11.265048 0-8.658344 0-7.002321 0-6.225421-3.092266-3.363159-2.816262-4.569398-2.223365-4.088947-1.911583-4.400729-2.412478-9.593691-2.632259-8.816791-0.86379-7.881445-0.587786-5.796082 0-6.225421-6.09253-8.837236-4.313839-8.816791-3.271157-8.494786-2.412478-7.610552-1.865582-7.293658-1.773581-6.859208 0-5.750081 0-6.409424 0-5.315631 1.047793-4.252504 1.497577-7.768998 1.860471-5.928973-3.363159-2.59137-9.54769-7.135212-12.583733-11.541052-7.728109-6.843874-7.538995-6.700761-5.18274-5.341186-4.267838-4.702289-9.184796-9.885028-8.72479-9.885028-6.818318-8.520342-8.177893-12.317952-7.814999-11.086156-7.728109-12.338396-6.496314-11.40305-5.402521-12.13906-5.729636-11.265048-4.180948-11.091268-4.40584-11.561496-3.271157-11.244603-3.230268-11.566608-2.862263-10.038364-1.589578-10.79993-1.773581-10.017919-1.497577-9.747026L23.882004 186.986888l0-17.633582 0-7.907 0.909791-7.768998 2.407367-13.227742 0.86379-5.816526 1.589578-5.908528 1.957583-5.596746 1.819581-3.945833 2.908263-7.319214 2.228476-1.497577 1.359575-3.092266 1.72758-0.725788 1.047793 0 0.725788 0 7.590107 0.725788 7.722998 1.998473 6.496314 2.59137 6.813207 4.40584 6.225421 4.088947 5.637635 5.361631 6.09253 5.591634 5.131628 5.770526 4.906736 6.542315 4.451841 5.908528 4.180948 4.906736 2.59137 5.637635 5.085627 9.271686 1.589578 3.797609 0.909791 2.269365 0.454895 2.59137 1.180683 2.136475 0.909791 0.454895 1.72758 0.909791 1.088682 0 0.454895-0.909791 0.86379 0 0.86379-0.454895 2.862263-12.609289 3.092266-10.176366 4.134947-10.682373 4.175837-9.58858 3.50116-9.54769 5.407632-8.356785 3.950945-8.816791 4.451841-8.091003 5.131628-7.002321 3.910055-6.726317 10.355257-12.450842 9.041683-11.091268 8.72479-8.632788 8.591899-7.768998 7.452105-6.09253 11.086156-9.859472 4.456952-2.182475 1.497577-2.085363 0-1.047793-1.042681-0.955791L226.744865 26.378178l-2.228476-0.730899-8.315895-0.628676-7.722998-1.047793-6.501425-0.909791-6.818318-1.497577-5.954528-1.865582-5.908528-1.819581-5.177629-2.775372-4.094058-2.545369-5.223629-1.676468-3.271157-2.724261-3.50116-2.141586-3.772053-3.041154-4.727844-5.913639-1.773581-2.770261-2.182475-2.407367-3.000265-6.225421-1.630467-5.18274-1.957583-5.177629-0.408895-4.543842 0-5.954528 0-2.59137-0.86379-4.221837 0-4.31895-1.047793-4.221837 0-3.772053 1.047793-4.134947 0.86379-3.680052 2.366478-7.089211 1.630467-3.363159 2.095585-3.363159 2.315366-3.322269 2.545369-2.908263 3.409159-3.317158 2.545369-2.724261 7.544106-5.637635 7.584996-4.727844 8.678789-4.267838 9.363688-3.818054 9.905473-4.083835 10.999266-2.55048 10.953266-3.680052 11.863056-2.453368 11.817056-1.773581 12.17995-1.865582 12.588844-1.824692 24.809683-2.586259 25.586583-0.454895 23.582999 0 11.091268 0 10.636372 0 11.086156 0.454895 9.50169 1.088682 9.174574 0.730899 8.591899 0.766677 13.810417 2.729372 9.951474 2.724261 9.455689 2.453368 17.449579 7.319214 7.912112 3.000265 7.538995 3.818054 12.455953 6.99721 11.224158 5.637635 8.315895 5.315631 6.087419 5.637635 9.50169-1.042681 7.360104-0.8229 14.546427-1.047793 6.813207 0 5.770526 0 4.40584-0.909791 4.502952-1.819581 7.135212-2.586259 7.94789-2.729372 15.134213-4.727844 15.451107-5.632524 15.042212-4.359839 15.175103-3.097377 15.497107-3.904944 16.044004-2.315366 15.221104-1.681579 15.267104-2.136475 14.265312-1.364686 15.267104-0.86379 14.633318 0 14.224423 0 13.498635 0 13.631526 1.635579 13.360633 0.587786 12.859737 2.136475 11.863056 2.632259 11.863056 2.55048 11.36216 2.719149 4.727844 1.364686 5.26963 1.72758 9.864584 3.904944 8.765679 4.088947 8.275006 4.267838 7.722998 4.456952 6.813207 5.131628 2.67826 2.775372 3.230268 3.766942 4.140058 5.044738 4.49273 6.225421 1.64069 3.138266 0.725788 2.637371 1.90136 3.363159 0.730899 3.634051 0 3.50116 0.914902 3.50116-0.914902 5.131628-0.730899 4.410951-1.90136 5.18274-1.497577 4.267838-2.821373 5.18274-3.404048 4.722733-3.276268 4.094058-4.40584 3.45516-9.087684 7.907-10.176366 7.630997-10.268367 6.087419-10.815264 6.230532-24.722793 12.174838-5.908528 3.639162-1.635579 1.676468-1.047793 1.093793 11.909057 12.001058 5.136739 5.908528 4.267838 5.453632 8.315895 12.041948 7.861 12.317952 6.634316 10.953266 6.271422 10.493259 8.407896 20.991629 6.542315 17.454691 4.313839 12.358841 2.499369 4.088947 1.497577 3.317158 2.59137 2.003584 1.088682 0 0.730899-0.454895 6.363423-12.629734 5.678525-12.17995 4.002056-6.859208 4.129836-5.908528 4.088947-7.273214 5.26963-7.181212 4.40584-4.998737 2.67826-2.724261 2.637371-2.453368 2.407367-1.819581 2.320477-1.681579 5.090738-2.59137 2.632259-0.909791 1.773581 0 2.361367 0 2.67826 0.909791 3.322269 1.681579 3.680052 1.681579 3.046265 2.724261 2.862263 3.179156 3.225157 3.950945 2.545369 3.046265 2.862263 4.911847 2.141586 3.945833 2.540258 5.596746 1.364686 4.727844 3.680052 11.546163 2.407367 12.767736 1.722469 14.157977 1.185795 8.223894 0 6.843874 0 7.314103 0 8.954793L999.519988 219.688238zM999.519988 219.688238"  horiz-adv-x="1024" />

    
    <glyph glyph-name="wenhua" unicode="&#58886;" d="M957.45184 257.736295l-279.198863-8.546653L510.528997 27.0094 403.338696 283.371138 148.748301 386.538823 368.942305 556.535565l8.588609 277.450033L609.1092 677.756417l268.226974 76.616982L800.281217 487.851253 957.45184 257.736295zM372.438942 250.567012c5.637394-5.638417 5.637394-14.774495 0-20.389376L86.597799-55.115016c-5.638417-5.617951-14.773472-5.617951-20.412912 0-5.636371 5.594415-5.636371 14.793938 0 20.388353L352.02603 250.567012C357.665471 256.16245 366.799502 256.16245 372.438942 250.567012z"  horiz-adv-x="1024" />

    
    <glyph glyph-name="fenzu" unicode="&#58950;" d="M980.012417 127.710475c-17.316846 17.293563-41.673406 28.189226-68.599249 28.189226l-90.389564 0c-26.921794 0-50.6497-10.894651-68.599249-28.189226-17.316846-17.939427-28.198337-41.658221-28.198337-68.585077l0-90.352107c0-26.925843 10.881491-51.275317 28.198337-68.590139 17.94955-17.29255 41.678468-28.18214 68.599249-28.18214l90.389564 0c26.926856 0 51.282403 10.889589 68.599249 28.18214 17.316846 17.314821 28.203398 41.665308 28.203398 68.590139l0 90.352107C1008.215815 86.052253 997.329263 109.771048 980.012417 127.710475zM950.527414-31.22671c0-10.894651-4.502825-20.505673-11.541527-27.557535-7.059961-7.055911-16.662884-11.546589-27.573732-11.546589l-90.389564 0c-10.909836 0-20.512759 4.489665-27.573732 11.546589-7.039714 7.051862-10.889589 16.662884-10.889589 27.557535l0 90.352107c0 10.889589 3.849875 20.501623 10.889589 27.557535 7.059961 7.05085 16.662884 10.909836 27.573732 10.909836l90.389564 0c10.909836 0 20.512759-3.859998 27.573732-10.909836 7.038702-7.05085 11.541527-16.667945 11.541527-27.557535L950.527414-31.22671zM549.850864 155.899701l-90.412847 0c-26.904584 0-51.282403-10.894651-68.576978-28.189226-17.94955-17.939427-28.205423-41.658221-28.205423-68.585077l0-90.352107c0-26.925843 10.256886-51.275317 28.205423-68.590139 17.294575-17.29255 41.678468-28.18214 68.576978-28.18214l90.412847 0c26.265807 0 50.6497 10.889589 68.593176 28.18214 17.299637 17.314821 28.209472 41.665308 28.209472 68.590139l0 90.352107c0 26.926856-10.909836 50.64565-28.209472 68.585077C600.500564 145.004037 576.116671 155.899701 549.850864 155.899701zM588.306086-31.22671c0-10.894651-3.842789-20.505673-10.904774-27.557535-7.037689-7.055911-17.294575-11.546589-27.550448-11.546589l-90.412847 0c-10.887565 0-20.512759 4.489665-27.552473 11.546589-7.038702 7.051862-11.541527 16.662884-11.541527 27.557535l0 90.352107c0 10.889589 4.501813 20.501623 11.541527 27.557535 7.038702 7.05085 16.664908 10.909836 27.552473 10.909836l90.412847 0c10.256886 0 20.512759-3.859998 27.550448-10.909836 7.061985-7.05085 10.904774-16.667945 10.904774-27.557535L588.306086-31.22671zM618.444039 851.266333c-17.943476 17.303686-42.327369 28.199349-68.593176 28.199349l-90.412847 0c-26.89851 0-51.282403-10.894651-68.576978-28.199349-17.94955-17.9455-28.205423-42.300036-28.205423-68.574954l0-90.363243c0-26.919769 10.256886-51.275317 28.205423-68.579003 17.294575-17.9455 41.678468-28.199349 68.576978-28.199349l90.412847 0c26.265807 0 50.6497 10.253849 68.593176 28.199349 17.299637 17.303686 28.209472 41.659234 28.209472 68.579003L646.653512 782.691379C646.653512 808.965284 635.743676 833.325894 618.444039 851.266333zM588.306086 692.327124c0-10.893639-3.842789-20.505673-10.904774-27.556522-7.037689-7.05085-17.294575-11.540515-27.550448-11.540515l-90.412847 0c-10.887565 0-20.512759 4.489665-27.552473 11.540515-7.038702 7.051862-11.541527 16.662884-11.541527 27.556522L420.344017 782.691379c0 10.252836 4.501813 20.506685 11.541527 27.556522 7.038702 6.409035 16.664908 10.889589 27.552473 10.889589l90.412847 0c10.256886 0 20.512759-3.83874 27.550448-10.889589 7.061985-7.049837 10.904774-17.303686 10.904774-27.556522L588.306086 692.327124zM113.907918 217.437977c0-8.333466 3.217172-15.385328 8.344602-20.505673 5.123381-5.142615 12.166132-8.334479 20.507697-8.334479 7.692664 0 15.384316 3.191863 20.512759 8.334479 5.12743 5.120344 8.323343 12.172206 8.323343 20.499599L171.596319 369.325324l303.87289 0 0-151.892409c0-8.327393 3.217172-15.379254 8.344602-20.499599 5.129455-5.142615 12.822119-8.986417 20.512759-8.986417 8.324356 0 15.385328 3.842789 20.512759 8.986417 5.12743 5.120344 8.340553 12.172206 8.340553 20.499599L533.179882 369.325324l303.878964 0 0-151.887347c0-8.333466 3.1949-15.385328 8.972244-20.505673 5.12743-5.142615 12.166132-8.986417 20.511747-8.986417 7.692664 0 14.731366 3.842789 20.512759 8.986417 5.129455 5.120344 8.324356 12.172206 8.324356 20.505673L895.37995 398.159402c0 7.693677-3.1949 15.385328-8.324356 20.506685-5.781393 5.13148-12.820095 8.333466-20.512759 8.333466l-332.731263 0L533.811573 534.02568c0 7.693677-3.843801 14.744526-8.971232 20.505673-5.12743 5.133504-12.189416 8.335491-20.512759 8.335491-7.691652 0-15.384316-3.201987-20.512759-8.335491-5.12743-5.761146-8.344602-12.811996-8.344602-20.505673l0-107.026127L142.766291 426.999553c-8.346627 0-15.385328-3.201987-20.512759-8.333466-5.12743-5.121357-8.998565-12.814021-8.998565-20.506685l0.653963 0L113.90893 217.437977zM187.634598 155.899701l-90.413859 0c-26.90256 0-50.627428-10.894651-68.576978-28.189226-17.316846-17.939427-28.204411-41.658221-28.204411-68.585077l0-90.352107c0-26.925843 10.887565-51.275317 28.204411-68.590139 17.94955-17.29255 41.674419-28.18214 68.576978-28.18214l90.413859 0c26.919769 0 51.275317 10.889589 68.592163 28.18214 17.94955 17.314821 28.205423 41.665308 28.205423 68.590139l0 90.352107c0 26.926856-10.256886 50.64565-28.205423 68.585077C238.909915 145.004037 214.554367 155.899701 187.634598 155.899701zM226.721512-31.22671c0-10.894651-4.473468-20.505673-11.513182-27.557535-7.066034-7.055911-16.691229-11.546589-27.572719-11.546589l-90.413859 0c-10.254861 0-20.511747 4.489665-27.550448 11.546589-7.044776 7.051862-10.909836 16.662884-10.909836 27.557535l0 90.352107c0 10.889589 3.86506 20.501623 10.909836 27.557535 7.038702 7.05085 16.662884 10.909836 27.550448 10.909836l90.413859 0c10.881491 0 20.507697-3.859998 27.572719-10.909836 7.038702-7.05085 11.513182-16.667945 11.513182-27.557535L226.721512-31.22671z"  horiz-adv-x="1024" />

    
    <glyph glyph-name="tuandui" unicode="&#58893;" d="M273.28512 286.02368c10.8544 3.87072 21.68832 8.51968 32.52224 13.18912-1.55648 0.77824-2.33472 2.31424-3.11296 3.072-3.09248 6.98368-4.62848 13.94688-3.87072 20.13184l37.1712 6.18496c3.87072 5.44768 7.74144 11.61216 10.8544 18.57536 3.09248 6.22592 5.40672 13.18912 8.51968 21.7088 2.31424 8.51968 3.87072 17.8176 4.64896 27.87328 0 6.9632 0 15.48288-0.77824 24.76032-1.55648 10.07616-3.87072 20.13184-6.98368 30.208-2.31424 10.07616-6.9632 20.8896-11.59168 30.96576-4.64896 10.07616-10.8544 19.3536-18.59584 27.09504-6.9632 8.51968-15.48288 14.72512-25.55904 20.13184-10.05568 4.66944-20.91008 6.9632-33.30048 6.9632-3.09248 0-5.40672 0-7.72096 0-2.31424 0-5.4272 0-7.74144-0.77824-10.07616 0-19.3536-1.51552-28.65152-4.62848-17.03936-4.66944-30.18752-12.3904-40.26368-21.68832-9.29792-10.07616-17.03936-20.8896-21.68832-34.05824-4.64896-12.36992-7.74144-24.80128-9.29792-38.72768-1.536-13.9264-1.536-26.3168-1.536-38.68672 0-13.94688 0.75776-26.33728 3.09248-34.85696 3.09248-9.27744 5.4272-17.05984 8.51968-21.68832 3.87072-6.18496 7.74144-10.83392 12.3904-13.9264l32.52224-5.44768c0-3.072 0-6.20544 0-9.29792 0-2.31424-0.77824-5.40672-2.33472-7.74144-1.536-3.09248-3.87072-5.40672-6.18496-7.74144-3.09248-3.09248-6.20544-5.40672-11.61216-8.51968-6.18496-4.66944-13.9264-7.72096-22.44608-10.05568-8.54016-1.55648-17.05984-4.64896-25.55904-6.9632-7.74144-3.09248-14.70464-6.9632-20.91008-11.61216-6.20544-4.64896-10.07616-11.61216-11.61216-20.91008-2.33472-16.26112-3.11296-29.40928-1.55648-39.48544 1.55648-10.05568 3.09248-16.24064 6.20544-17.79712 2.31424-2.31424 8.51968-3.87072 19.33312-6.9632 10.8544-2.33472 23.22432-4.66944 37.94944-7.00416 13.16864-1.51552 26.3168-3.072 40.26368-4.62848 0 13.18912 0.75776 30.208 0.75776 45.6704 0.77824 11.61216 0.77824 21.66784 0.77824 28.65152l0 1.51552 0.77824 1.55648c7.74144 24.02304 30.96576 31.76448 51.11808 38.72768C263.22944 281.3952 268.65664 283.72992 273.28512 286.02368L273.28512 286.02368zM912.83456 198.53312c-5.44768 13.94688-16.2816 25.53856-28.65152 33.28-24.76032 17.03936-54.96832 23.2448-81.3056 37.94944-8.4992 5.4272-17.01888 12.3904-20.91008 22.48704-1.536 13.14816-0.77824 27.09504-0.77824 40.2432 4.66944 3.87072 7.76192 8.51968 10.83392 13.18912 5.44768 10.81344 9.29792 22.44608 10.83392 34.05824 4.64896 0.77824 8.51968 3.85024 10.8544 6.9632 4.62848 6.9632 6.18496 14.70464 6.9632 22.46656 0 6.9632-2.33472 13.9264-7.74144 18.59584 6.9632 22.44608 11.61216 46.42816 9.27744 69.67296-1.536 13.9264-6.9632 28.65152-17.79712 38.68672-6.9632 6.18496-17.03936 10.07616-26.3168 11.61216-3.09248 3.072-6.22592 6.9632-9.29792 8.51968-10.05568 6.18496-22.46656 7.74144-34.05824 8.51968-20.91008-0.77824-42.5984-3.8912-59.63776-16.26112-8.51968-6.20544-14.70464-14.72512-19.31264-23.98208-5.44768-10.87488-7.7824-24.02304-8.51968-36.41344-0.77824-20.8896 3.072-41.02144 7.74144-60.35456-5.44768-4.66944-7.74144-10.87488-7.74144-17.05984 0.73728-6.9632 1.51552-13.14816 4.62848-19.3536 2.33472-5.40672 6.20544-10.0352 12.3904-11.59168 1.536-10.83392 5.4272-21.68832 10.81344-31.76448 3.11296-6.18496 7.00416-11.59168 11.61216-15.48288 0-13.14816 0.77824-27.09504-0.75776-41.02144-0.77824-1.55648-1.55648-3.09248-2.33472-4.66944 0-0.77824 0.77824-0.77824 0.77824-0.77824 5.44768-2.29376 10.83392-3.85024 16.26112-5.40672 20.13184-6.9632 42.5984-15.48288 51.11808-39.50592l0.77824-1.55648 0-1.51552c0-6.22592 0-17.03936 0-27.87328 0.75776-12.3904 0.75776-27.09504 0.75776-38.72768 55.74656 0 110.71488 0 165.6832 0C919.01952 180.71552 916.70528 190.01344 912.83456 198.53312L912.83456 198.53312zM678.23616 276.74624c-27.09504 10.83392-55.76704 23.2448-82.08384 34.05824-7.74144 2.31424-15.48288 3.87072-22.44608 6.20544-9.29792 6.20544-17.8176 26.3168-23.26528 36.39296-4.62848 0.77824-9.27744 1.55648-13.9264 2.29376 0.77824 15.50336 10.07616 16.2816 13.9264 28.65152 3.8912 10.05568 0.77824 23.98208 6.22592 34.05824 3.85024 6.20544 12.36992 6.20544 16.26112 12.3904 3.85024 5.4272 6.18496 14.70464 7.74144 20.91008 1.536 11.61216 3.87072 27.8528-1.55648 39.46496-3.85024 6.9632-5.40672 7.76192-6.9632 15.48288-0.77824 10.07616 3.09248 42.57792 3.87072 49.5616 0 17.8176 0 19.3536-4.66944 37.13024 0 0-5.40672 16.2816-13.9264 20.93056l-17.03936 3.072-10.05568 9.29792c-41.82016 25.55904-86.7328 7.74144-110.73536-2.31424-34.83648-10.8544-56.5248-44.1344-41.04192-116.14208 2.33472-12.36992-6.9632-17.77664-6.18496-24.76032 1.536-14.70464 1.536-49.5616 15.48288-58.08128 1.55648-0.75776 10.8544-3.072 10.8544-2.29376 1.55648-14.72512 3.09248-28.65152 4.64896-43.35616 3.09248-9.29792 11.61216-10.07616 13.94688-23.2448l-10.83392-3.072c-4.64896-10.07616-13.16864-30.208-22.46656-36.39296-7.74144-2.31424-14.70464-3.87072-22.44608-6.20544-26.33728-10.81344-55.74656-23.22432-82.06336-34.05824-24.00256-10.07616-52.6336-13.94688-61.17376-38.7072 0-17.03936-1.536-57.32352-1.536-79.7696l229.94944 0 17.03936 114.60608-13.94688 29.40928 32.52224 15.50336 27.09504-15.50336-15.48288-30.18752 27.11552-113.82784 219.11552 0c0.75776 22.44608-0.77824 62.73024-0.77824 79.7696C730.89024 262.79936 702.21824 266.67008 678.23616 276.74624L678.23616 276.74624z"  horiz-adv-x="1024" />

    
    <glyph glyph-name="h5" unicode="&#58888;" d="M184.667372 663.486412 247.308037-39.508573 528.578072-117.585813 810.614563-39.390893 873.403608 663.486412ZM737.268068 430.821375 736.95903 430.821375 407.34187 430.821375 415.204955 342.536656 729.431589 342.536656 705.733864 77.859531 529.303596 28.904563 529.115308 28.860561 529.022187 28.860561 528.898367 28.860561 352.281857 77.859531 340.22424 213.254198 426.790828 213.254198 432.915315 144.434809 528.922926 118.558465 529.144984 118.630097 625.175107 144.552489 635.138016 256.323109 336.360236 256.323109 313.095369 517.030829 744.971517 517.030829ZM229.326501 745.412306 229.326501 885.766938 276.821211 885.766938 276.821211 839.333396 319.030545 839.333396 319.030545 885.766938 365.464087 885.766938 365.464087 745.412306 319.030545 745.412306 319.030545 791.846872 276.821211 791.846872 276.821211 745.412306ZM386.569778 838.277344 386.569778 885.766938 515.312954 885.766938 515.312954 838.277344 474.162742 838.277344 474.162742 745.412306 427.728176 745.412306 427.728176 838.277344ZM535.365662 745.412306 535.365662 885.766938 584.963267 885.766938 613.458251 837.225385 643.010311 885.766938 692.608939 885.766938 692.608939 745.412306 647.227356 745.412306 647.227356 817.171654 613.458251 764.409986 613.458251 765.461945 581.800227 815.060573 581.800227 745.412306ZM716.878692 745.412306 716.878692 885.766938 763.312234 885.766938 763.312234 792.902924 828.740386 792.902924 828.740386 745.412306Z"  horiz-adv-x="1024" />

    
    <glyph glyph-name="links1" unicode="&#59068;" d="M852.2752 554.1888 682.1888 724.2752c-15.6672 15.6672-41.0624 15.6672-56.7296 0L455.2704 554.1888c-15.6672-15.6672-15.6672-41.0624 0-56.832l28.3648-28.3648 170.0864 170.1888 113.4592-113.4592L596.992 355.7376l28.3648-28.3648c15.6672-15.6672 41.0624-15.6672 56.7296 0l170.1888 170.1888C867.9424 513.1264 867.9424 538.5216 852.2752 554.1888L852.2752 554.1888zM540.3648 299.008 370.2784 128.8192 256.8192 242.2784 427.008 412.4672l-28.3648 28.3648c-15.6672 15.6672-41.0624 15.6672-56.7296 0L171.7248 270.6432c-15.6672-15.6672-15.6672-41.0624 0-56.832l170.1888-170.1888c15.6672-15.6672 41.0624-15.6672 56.7296 0l170.1888 170.1888c15.6672 15.6672 15.6672 41.0624 0 56.832L540.3648 299.008 540.3648 299.008zM398.6432 270.6432c15.6672-15.6672 41.0624-15.6672 56.832 0l170.1888 170.1888c15.6672 15.6672 15.6672 41.0624 0 56.7296s-41.0624 15.6672-56.832 0L398.6432 327.3728C382.976 311.7056 382.976 286.3104 398.6432 270.6432z"  horiz-adv-x="1024" />

    
    <glyph glyph-name="link" unicode="&#60837;" d="M541.7 230.3 362.9 51.4c-24.7-24.7-57.6-38.4-92.6-38.4-35 0-67.9 13.6-92.6 38.4S139.2 109 139.2 144c0 35 13.6 67.9 38.4 92.6l178.9 178.9c14.1 14.1 14.1 36.9 0 50.9-14.1 14.1-36.9 14.1-50.9 0L126.7 287.6C88.3 249.2 67.2 198.2 67.2 144c0-54.2 21.1-105.2 59.5-143.5 39.6-39.6 91.6-59.4 143.5-59.4 52 0 104 19.8 143.5 59.4l178.9 178.9c14.1 14.1 14.1 36.9 0 50.9S555.8 244.3 541.7 230.3zM899.4 773.2c-79.2 79.2-207.9 79.2-287.1 0L433.4 594.3c-14.1-14.1-14.1-36.9 0-50.9 14.1-14.1 36.9-14.1 50.9 0l178.9 178.9c51.1 51.1 134.2 51.1 185.3 0 24.7-24.7 38.4-57.6 38.4-92.6s-13.6-67.9-38.4-92.6L669.6 358.2c-14.1-14.1-14.1-36.9 0-50.9 7-7 16.2-10.5 25.5-10.5s18.4 3.5 25.5 10.5l178.9 178.9C978.6 565.3 978.6 694.1 899.4 773.2zM486.5 307.5l102 102c14.1 14.1 14.1 36.9 0 50.9-14.1 14.1-36.9 14.1-50.9 0l-102-102c-14.1-14.1-14.1-36.9 0-50.9 7-7 16.2-10.5 25.5-10.5S479.4 300.5 486.5 307.5z"  horiz-adv-x="1024" />

    
    <glyph glyph-name="link1" unicode="&#59139;" d="M541.269263 452.08285c-11.241094-11.241094-11.241094-29.269263 0-40.510356 46.449047-46.449047 46.449047-121.955261 0-168.404308l-243.910522-243.910522c-46.449047-46.449047-121.955261-46.449047-168.404308 0l-36.692626 36.692626c-46.449047 46.449047-46.449047 121.955261 0 168.404308l243.910522 243.910522c11.241094 11.241094 11.241094 29.269263 0 40.510356s-29.269263 11.241094-40.510356 0l-243.910522-243.910522C18.452361 211.565866 0 167.23778 0 120.152444c0-47.085336 18.240265-91.413422 51.75145-124.71251l36.692626-36.692626c34.359569-34.359569 79.53604-51.539354 124.71251-51.539354s90.352941 17.179785 124.71251 51.539354l243.910522 243.910522c68.719138 68.719138 68.719138 180.705882 0 249.425021C570.750621 463.323944 552.510356 463.323944 541.269263 452.08285zM972.460646 772.560066l-36.692626 36.692626c-68.719138 68.719138-180.705882 68.719138-249.425021 0l-243.910522-243.910522c-68.719138-68.719138-68.719138-180.705882 0-249.425021 11.241094-11.241094 29.269263-11.241094 40.510356 0s11.241094 29.269263 0 40.510356c-46.449047 46.449047-46.449047 121.955261 0 168.404308l243.910522 243.910522c46.449047 46.449047 121.955261 46.449047 168.404308 0l36.692626-36.692626c46.449047-46.449047 46.449047-121.955261 0-168.404308l-243.910522-243.910522c-11.241094-11.241094-11.241094-29.269263 0-40.510356 5.514499-5.514499 12.937862-8.483844 20.14913-8.483844s14.634631 2.757249 20.14913 8.483844l243.910522 243.910522c33.299089 33.299089 51.75145 77.627175 51.75145 124.71251C1024 694.932891 1005.759735 739.260978 972.460646 772.560066z"  horiz-adv-x="1024" />

    
    <glyph glyph-name="caozuo" unicode="&#58924;" d="M296.775 433.629l19.951 19.951-215.474 215.474c-5.487 5.487-5.487 14.465 0 19.951l105.243 105.243c5.487 5.487 14.465 5.487 19.951 0l30.426-30.426-31.922-31.922c-3.491-3.491-3.491-9.477 0-13.467 3.491-3.491 9.477-3.491 13.467 0l31.922 31.922 32.92-32.92-47.384-47.384c-3.491-3.491-3.491-9.477 0-13.467 3.491-3.491 9.477-3.491 13.467 0l47.384 47.384 34.416-34.416-31.922-31.922c-3.491-3.491-3.491-9.477 0-13.467 3.491-3.491 9.477-3.491 13.467 0l31.922 31.922 32.92-32.92-47.883-46.387c-3.491-3.491-3.491-9.477 0-13.467s9.477-3.491 13.467 0l47.384 47.384 31.922-31.922 19.951 19.951-215.973 215.973c-16.46 16.46-43.394 16.46-59.854 0l-105.243-105.243c-16.46-16.46-16.46-43.394 0-59.854l215.474-215.973zM816.507 244.59l-214.476 214.476-19.951-19.951 2.494-2.494-47.384-47.384c-3.491-3.491-3.491-9.477 0-13.467 3.491-3.491 9.477-3.491 13.467 0l47.384 47.384 34.416-34.416-31.922-31.922c-3.491-3.491-3.491-9.477 0-13.467 3.491-3.491 9.477-3.491 13.467 0l31.922 31.922 32.92-32.92-47.384-47.384c-3.491-3.491-3.491-9.477 0-13.467s9.477-3.491 13.467 0l47.384 47.384 34.416-34.416-31.922-31.922c-3.491-3.491-3.491-9.477 0-13.467s9.477-3.491 13.467 0l31.922 31.922 32.92-32.92-47.384-47.384c-3.491-3.491-3.491-9.477 0-13.467 3.491-3.491 9.477-3.491 13.467 0l47.384 47.384 10.973-10.973c5.487-5.487 5.487-14.465 0-19.951l-105.243-105.243c-5.487-5.487-14.465-5.487-19.951 0l-214.476 214.476-19.951-19.951 214.476-214.476c16.46-16.46 43.394-16.46 59.854 0l105.243 105.243c15.462 17.457 15.462 44.392-0.998 60.851zM777.602 673.543l22.445 22.445c13.467 13.467 20.949 31.922 20.949 51.375 0 19.453-7.482 37.409-20.949 50.876-13.467 13.467-31.922 20.949-50.876 20.949-19.453 0-37.409-7.482-50.876-20.949l-564.622-564.123c0 0-0.499-0.499-0.499-0.499-0.499-0.499-0.499-0.499-0.998-0.998-0.499-0.499-0.998-0.998-0.998-1.995 0 0-0.499-0.499-0.499-0.499l-55.864-119.209c-4.988-10.973-2.993-23.443 5.487-31.922 5.487-5.487 12.47-8.479 19.951-8.479 3.99 0 7.981 0.998 11.971 2.494l119.209 55.864c0 0 0.499 0.499 0.499 0.499 0.499 0.499 0.998 0.499 1.995 0.998 0.499 0 0.499 0.499 0.998 0.998 0 0 0.499 0.499 0.499 0.499l542.176 541.678c0 0 0 0 0 0zM225.948 161.792l-62.348 62.348 521.726 521.726 62.348-62.348-521.726-521.726z"  horiz-adv-x="1024" />

    
    <glyph glyph-name="chrome" unicode="&#58959;" d="M513.406 570.696c7.482 0 394.392 2.402 394.392 2.402C835.868 718.984 685.676 824 512 824c-140.914 0-266.408-66.088-347.138-168.962l154.062-265.286C321.778 494.746 407.72 570.696 513.406 570.696zM513.406 189.778c-83.064 0-153.932 52.054-181.874 125.322l-1.32-0.778L146.76 630.232c-47.836-70.522-75.778-155.62-75.778-247.248 0-223.244 165.848-407.692 381.07-436.952l150.884 265.564C576.122 197.694 545.692 189.778 513.406 189.778zM920.426 551.624 616.238 551.624c55.078-34.366 91.778-95.478 91.778-165.202 0-47.772-17.258-91.498-45.824-125.386l-179.56-316.042C492.342-55.654 502.138-56 512-56c243.572 0 441.016 197.444 441.016 441.016C953.016 443.968 941.426 500.216 920.426 551.624zM348.184 385.73c0-90.874 73.656-164.508 164.508-164.508 90.87 0 164.506 73.634 164.506 164.508 0 90.85-73.636 164.508-164.506 164.508C421.84 550.238 348.184 476.58 348.184 385.73z"  horiz-adv-x="1024" />

    
    <glyph glyph-name="team" unicode="&#59653;" d="M873.268 258.57C877.686 281.366 880 304.913 880 329c0 148.424-87.869 276.324-214.425 334.521C659.684 743.192 593.177 806 512 806s-147.684-62.808-153.576-142.479C231.869 605.324 144 477.424 144 329c0-24.087 2.314-47.634 6.732-70.43C99.388 233.6 64 180.933 64 120c0-85.052 68.948-154 154-154 42.452 0 80.891 17.177 108.748 44.959C381.158-20.802 444.454-39 512-39s130.842 18.198 185.252 49.959C725.109-16.823 763.549-34 806-34c85.052 0 154 68.948 154 154C960 180.933 924.612 233.6 873.268 258.57zM512 742c49.705 0 90-40.294 90-90s-40.295-90-90-90-90 40.294-90 90S462.295 742 512 742zM218 30c-49.706 0-90 40.294-90 90s40.294 90 90 90 90-40.294 90-90S267.706 30 218 30zM652 120c0-19.506 3.627-38.165 10.242-55.339C617.928 39.419 566.647 25 512 25s-105.927 14.419-150.242 39.661C368.374 81.835 372 100.494 372 120c0 85.052-68.948 154-154 154-1.681 0-3.355-0.027-5.022-0.08C209.708 291.783 208 310.192 208 329c0 115.857 64.812 216.578 160.157 267.883C390.329 539.055 446.37 498 512 498s121.671 41.055 143.844 98.883C751.188 545.578 816 444.857 816 329c0-18.808-1.708-37.217-4.978-55.08-1.667 0.053-3.342 0.08-5.022 0.08C720.948 274 652 205.052 652 120zM806 30c-49.705 0-90 40.294-90 90s40.295 90 90 90 90-40.294 90-90S855.705 30 806 30z"  horiz-adv-x="1024" />

    
    <glyph glyph-name="team1" unicode="&#58894;" d="M512 173.783375m-33.531486 0a33.531486 33.531486 0 1 1 67.062972 0 33.531486 33.531486 0 1 1-67.062972 0ZM512 57.712846m-33.531486 0a33.531486 33.531486 0 1 1 67.062972 0 33.531486 33.531486 0 1 1-67.062972 0ZM515.869018 707.707809c-112.201511 0-203.768262-91.566751-203.768262-205.057935 0-73.511335 38.690176-137.994962 96.72544-174.105793-137.994962-49.007557-242.458438-189.581864-242.458438-344.34257 0-14.186398 11.607053-25.793451 25.793451-25.793451s25.793451 11.607053 25.793451 25.793451c0 159.919395 130.256927 299.20403 283.72796 312.100756 5.15869 0 7.738035 1.289673 12.896725 1.289673s7.738035 0 11.607053 1.289672c107.042821 3.869018 193.450882 94.146096 193.450882 203.768262 0 113.491184-91.566751 205.057935-203.768262 205.057935z m0-358.528968H509.420655c-81.24937 3.869018-145.732997 70.93199-145.732998 153.471033 0 85.118388 68.352645 153.471033 152.181361 153.471033s152.18136-68.352645 152.18136-153.471033c0-83.828715-68.352645-153.471033-152.18136-153.471033zM220.534005 426.559194c10.31738 0 19.345088 6.448363 24.503778 16.765743 5.15869 12.896725-1.289673 28.372796-14.186398 33.531486-50.297229 20.634761-83.828715 68.352645-83.828715 123.808564 0 73.511335 59.324937 132.836272 131.5466 132.836272 30.952141 0 60.61461-10.31738 83.828715-30.952141 10.31738-9.027708 27.083123-7.738035 36.110831 3.869018 9.027708 10.31738 7.738035 27.083123-3.869018 36.110831-32.241814 27.083123-74.801008 42.559194-117.360201 42.559194-100.594458 0-183.133501-82.539043-183.133501-184.423174 0-76.09068 45.138539-143.153652 116.070529-171.526448 3.869018-1.289673 6.448363-2.579345 10.31738-2.579345zM709.319899 244.715365c-10.31738-10.31738-10.31738-25.793451 0-36.110831 67.062972-68.352645 100.594458-143.153652 100.594459-223.11335 0-14.186398 11.607053-25.793451 25.793451-25.793451s25.793451 11.607053 25.79345 25.793451c0 94.146096-38.690176 181.843829-116.070529 259.224181-10.31738 10.31738-25.793451 10.31738-36.110831 0zM98.015113 368.523929C36.110831 300.171285 0 211.183879 0 122.196474c0-14.186398 11.607053-25.793451 25.793451-25.793451s25.793451 11.607053 25.793451 25.793451c0 76.09068 30.952141 152.18136 83.828715 211.506297 9.027708 10.31738 9.027708 27.083123-1.289672 36.110831-10.31738 10.31738-27.083123 9.027708-36.110832-1.289673zM853.763224 444.61461c51.586902 33.531486 83.828715 90.277078 83.828716 154.760705 0 101.884131-82.539043 184.423174-184.423174 184.423174-45.138539 0-87.697733-16.765743-121.229219-46.428212-10.31738-9.027708-11.607053-25.793451-2.579345-36.110831 9.027708-10.31738 25.793451-11.607053 36.110831-2.579345 24.503778 20.634761 55.455919 33.531486 87.697733 33.531486 73.511335 0 132.836272-59.324937 132.836272-132.836272 0-56.745592-36.110831-107.042821-88.987406-126.387909-10.31738-2.579345-24.503778-5.15869-28.372796-16.765744-5.15869-12.896725 1.289673-27.083123 14.186398-32.241813C895.032746 374.972292 973.702771 256.322418 973.702771 135.093199c0-14.186398 11.607053-25.793451 25.793451-25.793451s25.793451 11.607053 25.793451 25.793451c-1.289673 123.808564-69.642317 242.458438-171.526449 309.521411z"  horiz-adv-x="1030" />

    
    <glyph glyph-name="news" unicode="&#58884;" d="M278.347-47.776l2.04 212.493C138.06 196.165 36.989 321.041 36.989 468.056v40.487c0 171.319 139.371 310.69 310.711 310.69h332.392c171.361 0 310.774-139.371 310.774-310.69v-40.487c0-171.34-139.413-310.732-310.774-310.732H521.434l-243.087-205.1z m69.352 825.356c-148.368 0-269.058-120.69-269.058-269.037v-40.487c0-132.436 94.698-244.108 225.177-265.518l17.619-2.895 0.791-17.973-1.332-139.08L506.21 198.977h173.902c148.39 0 269.12 120.71 269.12 269.079v40.487c0 148.347-120.73 269.037-269.12 269.037H347.699z m-4.332-300.027c0 16.307 12.392 29.99 28.7 29.99 16.931 0 29.323-13.683 29.323-29.99 0-17.62-12.392-29.345-29.324-29.345-18.265 0.646-28.699 13.059-28.699 29.345z m28.7-50.171h-0.75c-28.72 1.02-48.776 21.66-48.776 50.17 0 28.033 22.222 50.818 49.525 50.818 28.137 0 50.15-22.326 50.15-50.817 0-28.595-21.555-50.171-50.15-50.171z m0 59.355c-4.937 0-7.873-4.665-7.873-9.163 0-5.79 2.312-8.227 8.226-8.518 7.29 0.145 8.144 4.915 8.144 8.518 0 4.54-2.916 9.163-8.498 9.163z m126.5-9.184c0 16.307 12.392 29.99 28.678 29.99 16.953 0 29.345-13.683 29.345-29.99 0-17.62-12.392-29.345-29.345-29.345-18.244 0.646-28.678 13.059-28.678 29.345z m28.678-50.171h-0.75c-28.699 1.02-48.755 21.66-48.755 50.17 0 28.033 22.201 50.818 49.505 50.818 28.137 0 50.171-22.326 50.171-50.817 0-28.595-21.576-50.171-50.171-50.171z m0 59.355c-4.915 0-7.852-4.665-7.852-9.163 0-5.79 2.312-8.206 8.206-8.518 7.31 0.145 8.164 4.915 8.164 8.518 0 4.54-2.936 9.163-8.518 9.163z m126.542-9.184c0 16.307 12.371 29.99 28.678 29.99 16.953 0 29.324-13.683 29.324-29.99 0-17.62-12.37-29.345-29.324-29.345-18.265 0.646-28.678 13.059-28.678 29.345z m28.678-50.171h-0.729c-28.72 1.02-48.775 21.66-48.775 50.17 0 28.033 22.2 50.818 49.504 50.818 28.137 0 50.15-22.326 50.15-50.817 0-28.595-21.555-50.171-50.15-50.171z m0 59.355c-4.915 0-7.851-4.665-7.851-9.163 0-5.79 2.311-8.227 8.226-8.518 7.29 0.145 8.143 4.915 8.143 8.518-0.02 4.54-2.957 9.163-8.518 9.163z"  horiz-adv-x="1028" />

    
    <glyph glyph-name="Grouping" unicode="&#58902;" d="M320 832h320v-256H320zM384 192h192v-256H384zM0 192h192v-256H0zM768 192h192v-256h-192zM128 384h320v-128h64V384h320v-128h64V448H512V512H448v-64H64v-192h64V384z"  horiz-adv-x="1024" />

    
    <glyph glyph-name="email" unicode="&#59031;" d="M1370.244604 896H95.769784C44.201439 896 0 851.798561 0 800.230216v-832.460432c0-51.568345 44.201439-95.769784 95.769784-95.769784h1274.47482c51.568345 0 95.769784 44.201439 95.769784 95.769784V800.230216c0 51.568345-44.201439 95.769784-95.769784 95.769784z m22.10072-110.503597v-802.992806L935.597122 380.316547l456.748202 405.179856zM751.42446 306.647482c-7.366906 0-7.366906 0-14.733813-7.366906-7.366906 0-14.733813 7.366906-14.733812 7.366906l-589.352518 515.683453h1186.071942l-567.251799-515.683453z m-184.172661 36.834532l103.13669-88.402877 14.733813-14.733813c14.733813 0 29.467626-7.366906 44.201439-7.366907h7.366906c22.100719 0 44.201439 7.366906 58.935252 22.10072L884.028777 336.115108l442.014388-390.446043H132.604317l434.647482 397.812949zM515.683453 395.05036l-442.014388-405.179856V785.496403l442.014388-390.446043z"  horiz-adv-x="1476" />

    
    <glyph glyph-name="dongtai" unicode="&#58880;" d="M539.648 744.448l105.472-214.016 236.544-33.792c25.6-4.096 34.816-34.816 17.408-52.224l-172.032-166.912 39.936-235.52c4.096-25.6-22.528-44.032-45.056-32.768l-209.92 111.616-210.944-110.592c-22.528-12.288-49.152 7.168-45.056 32.768l39.936 235.52-169.984 165.888c-18.432 17.408-8.192 49.152 17.408 52.224l235.52 33.792 105.472 214.016c11.264 22.528 44.032 22.528 55.296 0z"  horiz-adv-x="1024" />

    
    <glyph glyph-name="java1" unicode="&#58892;" d="M381.279493 110.650237s-38.787581-22.553675 27.60949-30.216394c80.458556-9.163665 121.61605-7.860212 210.290305 8.926673 0 0 23.304147-14.614465 55.890455-27.293501-198.796226-85.198382-449.888538 4.937319-293.750752 48.583222z m-24.291611 111.188432s-43.527407-32.230821 22.94866-39.103569c85.948855-8.847676 153.84687-9.598149 271.315572 13.034523 0 0 16.233906-16.470897 41.789471-25.476568-240.348705-70.267929-508.069909-5.529798-336.053703 51.545614z m204.800006 188.605598c48.978208-56.403936-12.876529-107.159579-12.876529-107.159579s124.380949 64.185151 67.266039 144.604209c-53.362547 74.968257-94.243551 112.215394 127.224844 240.664694 0 0-347.62678-86.817823-181.614354-278.148822z m262.90238-382.030021s28.715449-23.659634-31.638343-41.947465c-114.743301-34.758728-477.577025-45.265344-578.377336-1.382449-36.220175 15.759923 31.717339 37.642123 53.086058 42.223955 22.277185 4.818824 35.035218 3.949855 35.035218 3.949855-40.288526 28.399461-260.45347-55.732461-111.820409-79.826579 405.334168-65.725595 738.859964 29.584417 633.714812 77.022182zM399.922811 337.016454s-184.576746-43.843396-65.370108-59.761313c50.321159-6.754253 150.647488-5.213809 244.140566 2.606905 76.390205 6.438264 153.096398 20.144263 153.096398 20.144262s-26.938014-11.533578-46.410802-24.84459c-187.420642-49.294196-549.464394-26.345536-445.227708 24.054619 88.160774 42.618941 159.811152 37.760618 159.811152 37.760619z m331.116384-185.050729c190.541028 98.983378 102.419752 194.135396 40.960001 181.337865-15.088448-3.120386-21.803202-5.845786-21.803202-5.845786s5.608795 8.768679 16.273404 12.56054c121.61605 42.776935 215.188126-126.118885-39.261563-193.029436 0 0 2.962392 2.646403 3.83136 4.976817zM616.137899 896s105.50064-105.540138-100.089338-267.839699c-164.866967-130.187236-37.602624-204.444519-0.078997-289.247916-96.218479 86.817823-166.841895 163.247527-119.483128 234.384423 69.556955 104.434179 262.191406 155.031827 219.611964 322.703192z m-197.492773-1012.308458c182.878308-11.691572 463.713032 6.477763 470.348789 93.019096 0 0-12.797532-32.823299-151.12147-58.852846-156.098288-29.386925-348.614244-25.95055-462.765067-7.10974 0 0 23.383144-19.354292 143.577246-27.05651z"  horiz-adv-x="1024" />

    
    <glyph glyph-name="tuandui1" unicode="&#58899;" d="M740.352 155.136c0 38.912-11.264 69.12-33.28 97.28-38.912 44.544-83.456 67.072-139.264 67.072h-100.352c-38.912 0-72.704-11.264-105.984-33.28-38.912-27.648-61.44-58.368-67.072-102.912-5.632-50.176 0-105.984-5.632-161.792 5.632 0 16.896-5.632 22.528-5.632 67.072-16.896 128-33.28 195.072-33.28 38.912 0 83.456 0 122.368 5.632 33.28 5.632 67.072 16.896 100.352 27.648 5.632 0 5.632 5.632 5.632 11.264 5.632 44.544 5.632 89.088 5.632 128zM378.368 330.24c11.264 5.632 16.896 5.632 27.648 11.264-33.28 33.28-50.176 67.072-50.176 111.616h-117.248c-22.528 0-44.544-5.632-61.44-11.264-61.44-22.528-111.616-83.456-111.616-150.528v-130.56c0-5.632 0-5.632 5.632-11.264 44.544-11.264 89.088-22.528 133.632-27.648 16.896 0 38.912-5.632 55.808-5.632v33.28c0 16.896 0 33.28 5.632 50.176 17.408 67.072 56.32 102.912 112.128 130.56zM957.952 280.064c0 22.528-5.632 50.176-16.896 72.704-33.28 67.072-83.456 100.352-156.16 100.352h-105.984c0-44.544-16.896-83.456-50.176-111.616 5.632 0 11.264-5.632 11.264-5.632 27.648-11.264 55.808-27.648 77.824-50.176 33.28-38.912 50.176-74.752 50.176-124.928v-38.912c27.648 5.632 50.176 5.632 77.824 11.264 33.28 5.632 72.704 16.896 105.984 33.28 5.632 0 5.632 5.632 5.632 11.264 0.512 27.648 0.512 63.488 0.512 102.4zM517.632 342.016c72.704 0 133.632 61.44 128 133.632 0 72.704-61.44 128-128 128-72.704 0-133.632-55.808-133.632-128 5.632-72.192 60.928-133.632 133.632-133.632zM679.424 486.912c16.896-5.632 33.28-11.264 55.808-11.264 72.704 0 133.632 61.44 128 133.632 0 72.704-61.44 128-128 128-72.704 0-133.632-55.808-133.632-128 44.032-22.016 72.192-66.56 77.824-122.368zM289.28 476.16c22.528 0 50.176 5.632 67.072 16.896 5.632 44.544 27.648 83.456 61.44 105.984v5.632c0 72.704-61.44 128-128 128-72.704 0-133.632-55.808-133.632-128-1.024-67.584 60.416-128.512 133.12-128.512z"  horiz-adv-x="1024" />

    
    <glyph glyph-name="qianduanyanfa" unicode="&#59027;" d="M330.752 115.712c-6.656 0-13.312 2.56-17.92 7.68l-241.664 246.784c-9.728 9.728-9.728 25.6 0 35.328l236.544 242.176c9.728 9.728 25.6 10.24 35.328 0.512 9.728-9.728 10.24-25.6 0.512-35.328L124.416 387.584l224.256-229.376c9.728-9.728 9.728-25.6-0.512-35.328C343.552 118.272 336.896 115.712 330.752 115.712zM692.224 114.688c-6.144 0-12.8 2.56-17.408 7.168-9.728 9.728-10.24 25.6-0.512 35.328l225.28 230.4-220.672 225.792c-9.728 9.728-9.728 26.112 0.512 35.328 10.24 9.728 26.112 9.728 35.328-0.512l237.568-243.2c9.728-9.728 9.728-25.6 0-35.328l-242.688-248.32C705.024 116.736 698.88 114.688 692.224 114.688zM435.712 50.176c-2.048 0-4.608 0.512-6.656 1.024-13.312 3.584-21.504 17.408-17.92 30.72l166.4 617.472c3.584 13.312 17.408 21.504 30.72 17.92 13.312-3.584 21.504-17.408 17.92-30.72L459.776 68.608C456.704 57.344 446.464 50.176 435.712 50.176z"  horiz-adv-x="1024" />

    
    <glyph glyph-name="news1" unicode="&#58915;" d="M509.208 361.947c42.728 0 73.036 29.314 83.967 46.704 8.943 13.912 4.968 32.294-8.943 41.734-13.913 8.944-32.792 5.465-41.735-8.445 0 0-13.414-19.377-33.288-19.377-19.377 0-31.302 17.389-32.294 18.88-8.944 13.912-27.326 18.384-41.735 9.44-14.408-8.943-18.383-27.326-9.937-41.734 11.427-17.39 41.238-47.201 83.966-47.201M391.456 587.514c-16.893 0-30.307-13.414-30.307-30.307v-29.811c0-16.893 13.414-30.307 30.307-30.307 16.893 0 30.307 13.414 30.307 30.307v29.811c0.001 16.893-13.413 30.307-30.307 30.307M112.726 515.471c15.899-5.465 33.288 2.485 38.755 18.383 47.2 131.167 194.265 222.587 357.728 222.587 88.438 0 171.908-26.83 237.491-72.043 37.759-18.88 65.086 23.352 33.287 52.168-75.023 51.175-169.422 80.986-270.78 80.986-191.285 0-358.225-105.331-414.865-262.334-5.464-16.893 2.486-34.282 18.384-39.747M627.955 497.585c16.893 0 30.306 13.414 30.306 30.307v29.811c0 16.893-13.413 30.307-30.306 30.307-16.894 0-30.307-13.414-30.307-30.307v-29.811c0-16.893 13.413-30.307 30.307-30.307M913.64 473.239c-16.893 0-30.307-13.414-30.307-30.307 0-172.903-167.932-313.012-373.627-313.012h-1.491c-6.459 0-13.414-1.49-19.377-5.961l-113.28-84.96v80.985c0 1.491 0 2.982-0.497 4.472 2.485 13.913-5.465 28.32-19.377 33.289-133.651 50.677-220.101 162.963-220.101 285.684 0 16.893-13.414 30.307-30.307 30.307-16.893 0-30.308-13.414-30.308-30.307 0-142.096 93.407-271.277 239.976-334.377v-130.172c0-11.427 6.459-21.861 16.893-27.326 4.472-1.986 8.944-2.981 13.414-2.981 0.010-0 0.022-0 0.034-0 6.897 0 13.271 2.236 18.438 6.023l153.934 115.207c236.001 3.477 426.789 169.921 426.789 373.626-0.497 16.396-13.913 29.811-30.805 29.811M877.866 693.342c54.331 0 98.375-44.045 98.375-98.375 0-54.331-44.044-98.375-98.375-98.375-54.33 0-98.375 44.044-98.375 98.375 0.001 54.33 44.046 98.375 98.375 98.375z"  horiz-adv-x="1024" />

    
    <glyph glyph-name="lianjie" unicode="&#58944;" d="M438.727111 257.6384a53.020444 53.020444 0 0 0-37.546667 15.542044c-97.143467 97.143467-97.143467 255.1808 0 352.324267l196.039112 196.039111C644.278044 868.602311 706.833067 894.520889 773.370311 894.520889s129.115022-25.918578 176.173511-72.954311c97.143467-97.143467 97.143467-255.1808 0-352.324267l-89.611378-89.611378a53.088711 53.088711 0 1 0-75.070577 75.070578l89.611377 89.611378a143.086933 143.086933 0 0 1 0 202.1376 141.994667 141.994667 0 0 1-101.080177 41.870222 141.949156 141.949156 0 0 1-101.080178-41.870222l-196.039111-196.039111a143.086933 143.086933 0 0 1 0-202.1376 53.088711 53.088711 0 0 0-37.546667-90.635378z m-188.120178-384.136533a247.512178 247.512178 0 0 0-176.150755 72.954311c-97.143467 97.143467-97.143467 255.1808 0 352.324266l89.611378 89.611378a53.088711 53.088711 0 1 0 75.070577-75.070578l-89.611377-89.611377a143.086933 143.086933 0 0 1 0-202.1376c26.988089-27.010844 62.896356-41.870222 101.080177-41.870223s74.092089 14.859378 101.080178 41.870223l196.039111 196.039111a143.086933 143.086933 0 0 1 0 202.1376 53.088711 53.088711 0 1 0 75.070578 75.070578c97.143467-97.143467 97.143467-255.1808 0-352.324267l-196.039111-196.039111a247.352889 247.352889 0 0 0-176.150756-72.954311z"  horiz-adv-x="1024" />

    
    <glyph glyph-name="links2" unicode="&#58933;" d="M252.8-89.6c-38.4 0-73.6 16-102.4 41.6l-67.2 67.2c-28.8 25.6-41.6 64-41.6 102.4s16 73.6 41.6 102.4l249.6 249.6 22.4-22.4-249.6-249.6c-22.4-22.4-32-48-32-80s12.8-57.6 32-80l67.2-67.2c41.6-41.6 115.2-41.6 156.8 0l249.6 249.6c44.8 44.8 44.8 115.2 0 160L512 451.2c-16 16-38.4 28.8-60.8 32l6.4 32c32-3.2 57.6-19.2 80-41.6l67.2-67.2c57.6-57.6 57.6-147.2 0-204.8L352-44.8c-25.6-28.8-60.8-44.8-99.2-44.8zM569.6 252.8c-32 3.2-57.6 19.2-80 41.6l-67.2 67.2c-57.6 57.6-57.6 147.2 0 204.8L672 812.8c25.6 28.8 64 41.6 102.4 41.6s73.6-16 102.4-41.6l67.2-67.2c28.8-25.6 41.6-64 41.6-102.4s-16-73.6-41.6-102.4l-249.6-249.6-22.4 25.6 249.6 249.6c22.4 22.4 32 48 32 80s-12.8 57.6-32 80l-67.2 67.2C809.6 832 736 832 694.4 790.4L444.8 544c-44.8-44.8-44.8-115.2 0-160l67.2-67.2c16-16 38.4-28.8 60.8-32l-3.2-32z"  horiz-adv-x="1024" />

    
    <glyph glyph-name="github" unicode="&#58885;" d="M465.98144-105.73913a89.577739 89.577739 0 0 0-89.889391 88.954434l-0.356174 63.666087c-176.662261-38.422261-213.926957 74.930087-213.926957 74.930087C132.91431 195.183304 91.286483 214.683826 91.286483 214.683826c-57.61113 39.446261 4.36313 38.64487 4.363131 38.64487 63.710609-4.452174 97.28-65.446957 97.28-65.446957 56.631652-97.057391 148.569043-69.008696 184.765217-52.802782 5.698783 41.049043 22.171826 69.053217 40.336696 84.947478-141.04487 16.027826-289.302261 70.522435-289.302261 313.789217 0 69.320348 24.798609 125.952 65.446957 170.429218-6.589217 16.027826-28.315826 80.584348 6.144 168.025043 0 0 53.337043 17.051826 174.658782-65.090783a609.28 609.28 0 0 0 158.942609 21.370435c53.915826-0.222609 108.27687-7.257043 159.031652-21.370435C814.185962 889.321739 867.433962 872.269913 867.433962 872.269913c34.54887-87.485217 12.822261-152.041739 6.233043-168.025043 40.69287-44.432696 65.357913-101.10887 65.357913-170.429218 0-243.890087-148.569043-297.583304-289.925565-313.299478 22.750609-19.72313 43.052522-58.323478 43.052522-117.581913 0-84.992-0.311652-119.674435-0.311652-119.674435a89.622261 89.622261 0 0 0-89.800348-88.998956H465.98144z"  horiz-adv-x="1024" />

    
    <glyph glyph-name="wenhua1" unicode="&#58881;" d="M812.55596 487.553293l79.702626 275.675798-277.439354-79.248808L375.288566 845.575758l-8.883718-286.979879L138.648889 382.761374l263.333495-106.710627 110.871273-265.165575 173.483959 229.810424L975.12501 249.535354 812.55596 487.553293z m-151.082667-210.83798L521.310707 91.046788l-89.576727 214.233212-212.752808 86.215111 184.009697 142.060606L410.169212 765.414141l193.521778-130.557414 224.14998 64.027152-64.393051-222.725172 131.342222-192.29996-233.316848-7.143434zM348.907636 242.120404L53.249616-52.971313c-5.829818-5.787152-5.829818-15.303111 0-21.090263 5.833697-5.810424 15.281131-5.810424 21.113536 0l295.65802 295.090424c5.831111 5.807838 5.831111 15.257859 0 21.090263-5.832404 5.788444-15.282424 5.788444-21.113536 0.001293z"  horiz-adv-x="1024" />

    
    <glyph glyph-name="anquanxinxi" unicode="&#58907;" d="M511.971424 896l432.061494-185.429956v-281.196457a550.586086 550.586086 0 0 0-32.739709-187.711469 597.699326 597.699326 0 0 0-89.549379-164.154849 588.630312 588.630312 0 0 0-137.6893-129.932156 520.013814 520.013814 0 0 0-172.140144-75.518075 519.899738 519.899738 0 0 0-172.140143 75.518075 587.489556 587.489556 0 0 0-137.6893 129.932156 597.128948 597.128948 0 0 0-89.378266 164.383A550.129783 550.129783 0 0 0 79.966968 429.373587v281.196457L511.971424 896m0-510.887762V794.928981l-336.523144-145.503481v-264.313262h336.523144v-415.349413a393.218738 393.218738 0 0 1 124.399488 59.43341 481.513285 481.513285 0 0 1 99.816186 96.05169A516.990809 516.990809 0 0 1 809.480698 245.768841a522.808667 522.808667 0 0 1 38.842756 139.400434h-336.523143m0 0z"  horiz-adv-x="1024" />

    
    <glyph glyph-name="fenzuguanli" unicode="&#59044;" d="M689.9 234.8c27.7-10.2 49.8-26.4 66.3-48.7 16.5-22.3 24.8-47.4 24.8-75.5H230.4c0 45.9 17.8 80.9 53.5 105.1 13.2 8.9 45.5 19.1 97 30.6 31.7 3.8 48.8 12.1 51.5 24.8 1.3 5.1 2 19.7 2 43.9 0 3.8-1.3 7-4 9.6-5.3 5.1-10.6 14-15.8 26.7-2.6 10.2-5.3 25.5-7.9 45.9-5.3-1.3-9.6 0.6-12.9 5.7-3.3 5.1-5.9 11.8-7.9 20.1s-3 13.1-3 14.3c-5.3 28-3.3 41.4 5.9 40.1-4 5.1-7.3 17.2-9.9 36.3-4 28-2 52.9 5.9 74.5 9.2 24.2 25.7 42.7 49.5 55.4 23.8 12.7 49.5 18.5 77.2 17.2 26.4-1.3 50.5-8.9 72.3-22.9 21.8-14 36.6-33.1 44.6-57.3 6.6-17.8 7.3-42.7 2-74.5-2.6-15.3-5.3-24.8-7.9-28.7 4 1.3 6.9 0 8.9-3.8s2.6-8.6 2-14.3c-0.7-5.7-1.3-10.8-2-15.3s-1.7-8-3-10.5l-4-13.4c-1.3-8.9-3.6-15.3-6.9-19.1-3.3-3.8-7.6-5.1-12.9-3.8-2.6-28-7.3-47.8-13.9-59.2 0-1.3-2.3-4.5-6.9-9.6-4.6-5.1-6.9-8.3-6.9-9.6v-21c0-12.7 1.3-22.3 4-28.7 2.6-6.4 11.9-11.5 27.7-15.3 9.2-3.8 22.8-7 40.6-9.6 17.9-2.4 31.4-5.5 40.7-9.4z m-406.2 22.6h2-4 2z m3.3-3.8c-18.8-10.2-34.8-22.3-48.2-36.3-6.7-14-11.4-21-14.1-21H64c0 38.2 20.1 63.7 60.3 76.4 1.3 0 7.4 1.3 18.1 3.8 10.7 2.5 20.1 5.1 28.1 7.6s12.7 5.7 14.1 9.6c1.3 3.8 2 14 2 30.6-26.8-2.5-48.2 1.9-64.3 13.4l8 22.9c1.3 2.5 2.7 6 4 10.5 1.3 4.5 2 8 2 10.5 1.3 11.5 2 29.3 2 53.5 0 47.1 5.4 78.4 16.1 93.6 14.7 22.9 40.2 34.4 76.3 34.4 54.9 0 86.4-23.6 94.4-70.7 2.7-11.5 4-28.3 4-50.6v-41.1c0-14 3.4-29.3 10-45.9 5.4-10.2 7.4-15.9 6-17.2l-12.1-5.7c-6.7-2.6-18.1-5.1-34.2-7.6-10.7 0-16.7-0.6-18.1-1.9v-21c0-7.6 3.4-12.1 10-13.4 2.7-1.3 7.7-2.5 15.1-3.8 7.4-1.3 13.7-2.9 19.1-4.8 5.4-1.9 9.4-4.1 12.1-6.7 4-6.4 2.7-9.6-4-9.6-18.7-2.6-32.8-5.7-42.2-9.6h-2l-10-3.8h2c2.9 1.4 4.9 2.6 6.2 3.9z m610.4 19c41.9-12.7 62.8-38.2 62.8-76.3H798.1c-2.7 8.9-13.5 21-32.4 36.2-23 16.5-41.9 26.1-56.7 28.6h-10.1c-5.4 0-9.8 0.6-13.2 1.9-3.4 1.3-4.4 3.8-3 7.6 2.7 3.8 11.5 7.6 26.3 11.4 20.3 5.1 31.1 9.5 32.4 13.3V322c-8.1 0-20.3 1.3-36.5 3.8-8.1 2.5-15.5 5.1-22.3 7.6-5.4 2.5-5.4 9.5 0 21 4.1 8.9 7.4 41.3 10.1 97.3 2.7 56 20.9 90.3 54.7 103 33.8 12.7 66.2 10.8 97.3-5.7 27-15.3 40.5-43.2 40.5-83.9 0-5.1-0.3-14.6-1-28.6-0.7-14-1-24.8-1-32.4 0-7.6 1.4-17.2 4-28.6 2.7-11.4 6.8-21 12.2-28.6 4.1-6.4 4.1-10.2 0-11.4-1.3-1.3-3.4-1.9-6.1-1.9-2.7 0-4.7-0.6-6.1-1.9l-24.3-5.7c-5.4-1.3-14.2-1.9-26.3-1.9 0-20.3 0.7-31.2 2-32.4 4.1-3.8 9.5-7 16.2-9.5 6.8-2.5 14.5-4.5 23.3-5.7 8.8-1.4 15.2-2.6 19.3-3.9z"  horiz-adv-x="1024" />

    
    <glyph glyph-name="nav-links" unicode="&#58946;" d="M775.192238 896c94.96223-5.503202 180.581816-52.408401 224.991377-156.649286 44.985477-105.968635 24.956381-204.450355-52.728355-288.598153-54.96803-59.511371-114.031465-115.31128-171.751096-172.199031-25.148353-24.764409-65.270536-25.532298-86.96339-2.687611-21.948817 23.03666-19.581161 54.776057 6.783016 81.332207 56.695779 56.887751 114.095456 113.007614 170.151328 170.3433 84.467752 86.451465 46.969189 223.967525-69.749886 254.939034-48.504967 12.862135-95.090212 3.967425-132.012858-30.395592-59.383389-55.351974-115.247289-114.223438-174.438706-169.575412-12.478191-11.710302-33.275175-21.820836-49.464828-20.796984-43.513691 2.68761-65.526499 55.351974-35.386869 86.707427C469.31659 715.802129 535.291024 782.160507 604.784947 844.55146 647.082814 882.625939 702.178825 895.616056 775.192238 896zM0.00864 135.150323c0.447935 72.75745 25.788261 135.532348 76.724875 187.364832 56.183853 57.335686 113.327568 113.711512 170.3433 170.215319 27.068075 26.876103 60.34325 28.923806 83.315919 5.823156 23.868539-24.060511 21.500882-54.392113-6.719025-82.740003-54.264132-54.456104-109.424134-108.20831-163.17634-163.304321-66.486359-67.958146-69.301951-159.65685-7.99884-221.279914 58.615501-58.935454 155.497453-59.191417 216.800564 0.447935 55.735918 54.328122 109.872069 110.192022 165.416015 164.520144 33.339166 32.635268 84.019817 20.988957 92.850536-22.844687 3.199536-15.805708-3.199536-39.610257-14.141949-51.128587-60.34325-63.606777-120.6865-127.789471-186.404971-185.509101-80.500327-70.645756-174.886641-82.356058-273.240381-39.546265C58.688131-61.493163 0.200612 31.805308 0.00864 135.150323z m736.469212 414.659875c-3.51949-6.655035-7.550905-20.924966-16.765569-30.267612a51589.959456 51589.959456 0 0 0-333.711612-335.695324c-23.740558-23.740558-57.527658-22.14079-79.924411 0.447935-22.524734 22.716706-21.884827 53.944178 3.199536 79.092532C418.955893 373.387779 529.083924 483.131866 639.019983 592.683981c17.789421 17.789421 38.714386 25.340326 63.094852 14.717866 21.756845-9.406636 32.763249-26.62014 34.363017-57.591649z"  horiz-adv-x="1024" />

    


  </font>
</defs>
</svg>
